<?xml version="1.0" encoding="UTF-8" standalone="no"?>
<!-- Created with Inkscape (http://www.inkscape.org/) -->

<svg
   xmlns:dc="http://purl.org/dc/elements/1.1/"
   xmlns:cc="http://creativecommons.org/ns#"
   xmlns:rdf="http://www.w3.org/1999/02/22-rdf-syntax-ns#"
   xmlns:svg="http://www.w3.org/2000/svg"
   xmlns="http://www.w3.org/2000/svg"
   xmlns:sodipodi="http://sodipodi.sourceforge.net/DTD/sodipodi-0.dtd"
   xmlns:inkscape="http://www.inkscape.org/namespaces/inkscape"
   width="210mm"
   height="297mm"
   viewBox="0 0 210 297"
   version="1.1"
   id="svg8"
   inkscape:version="0.92.5 (2060ec1f9f, 2020-04-08)"
   sodipodi:docname="mirror.svg">
  <defs
     id="defs2">
    <inkscape:perspective
       sodipodi:type="inkscape:persp3d"
       inkscape:vp_x="0 : 148.5 : 1"
       inkscape:vp_y="0 : 1000 : 0"
       inkscape:vp_z="210 : 148.5 : 1"
       inkscape:persp3d-origin="105 : 99 : 1"
       id="perspective3723" />
  </defs>
  <sodipodi:namedview
     id="base"
     pagecolor="#ffffff"
     bordercolor="#666666"
     borderopacity="1.0"
     inkscape:pageopacity="0.0"
     inkscape:pageshadow="2"
     inkscape:zoom="1.4142136"
     inkscape:cx="354.30726"
     inkscape:cy="951.91502"
     inkscape:document-units="mm"
     inkscape:current-layer="layer1"
     showgrid="true"
     inkscape:window-width="1366"
     inkscape:window-height="708"
     inkscape:window-x="0"
     inkscape:window-y="0"
     inkscape:window-maximized="0"
     showguides="true"
     inkscape:lockguides="false">
    <inkscape:grid
       type="xygrid"
       id="grid91"
       visible="true"
       units="mm"
       spacingx="0.001"
       spacingy="0.001"
       empspacing="10"
       empcolor="#003fff"
       empopacity="0.25098039" />
  </sodipodi:namedview>
  <metadata
     id="metadata5">
    <rdf:RDF>
      <cc:Work
         rdf:about="">
        <dc:format>image/svg+xml</dc:format>
        <dc:type
           rdf:resource="http://purl.org/dc/dcmitype/StillImage" />
        <dc:title></dc:title>
      </cc:Work>
    </rdf:RDF>
  </metadata>
  <g
     inkscape:label="Layer 1"
     inkscape:groupmode="layer"
     id="layer1"
     style="display:inline">
    <rect
       id="rect3765"
       width="0.60000002"
       height="0.80000001"
       x="-115.02"
       y="50.986004"
       style="stroke-width:0.26458332"
       transform="scale(-1,1)" />
    <rect
       id="rect3765-3"
       width="0.89999998"
       height="0.80000001"
       x="-114.02"
       y="50.986004"
       style="stroke-width:0.32404706"
       rx="0.089997865"
       ry="0.093996122"
       transform="scale(-1,1)" />
    <rect
       id="rect3765-6"
       width="0.60000002"
       height="0.80000001"
       x="-115.02"
       y="49.386005"
       style="stroke-width:0.26458332"
       ry="0.093994595"
       rx="0.10999481"
       transform="scale(-1,1)" />
    <rect
       id="rect3765-3-7"
       width="0.60000002"
       height="0.80000001"
       x="-113.71999"
       y="49.386005"
       style="stroke-width:0.26458332"
       rx="2.7755576e-17"
       transform="scale(-1,1)" />
    <g
       id="g177"
       transform="matrix(-1,0,0,1,226.61,0)">
      <rect
         id="rect3820"
         width="24.280001"
         height="9.0939999"
         x="87.910004"
         y="50.980003"
         style="stroke-width:0.26458332" />
      <rect
         style="stroke-width:0.18708865"
         y="54.02"
         x="82.909996"
         height="3.0710001"
         width="5"
         id="rect3825" />
      <rect
         style="stroke-width:0.34099442"
         y="54.019001"
         x="63.299999"
         height="3.0710001"
         width="16.610001"
         id="rect3825-5" />
    </g>
    <g
       id="g182"
       transform="matrix(-1,0,0,1,226.61,0)">
      <rect
         id="rect3865"
         width="25.809999"
         height="2.1619999"
         x="112.89"
         y="48.028004"
         style="stroke-width:1.18809581" />
      <rect
         transform="scale(-1)"
         style="stroke-width:0.18708865"
         y="-50.640003"
         x="-143.69693"
         height="3.0710001"
         width="5"
         id="rect3825-6" />
      <rect
         transform="scale(-1)"
         style="stroke-width:0.34099442"
         y="-50.639999"
         x="-163.31"
         height="3.0710001"
         width="16.610001"
         id="rect3825-5-7" />
    </g>
    <g
       id="g4010"
       transform="translate(1.6900009,-1.9108309)" />
    <rect
       style="stroke-width:0.16233119"
       rx="2.4282969e-17"
       y="53.179333"
       x="-90.089996"
       height="7.039"
       width="2.8740001"
       id="rect182-0"
       transform="scale(-1,1)" />
    <path
       style="stroke-width:0.42333329"
       d="M 113.12212,50.986525 108.53,51.611424 c -1.37235,0.186751 -2.5,0.483576 -2.5,1.868576 v 2.999999 c 0,1.385 1.115,2.500001 2.5,2.500001 h 3 c 1.385,0 1.68852,-1.143601 1.87093,-2.516537 l 0.62093,-4.673524 C 114.07322,51.403397 113.61,51 113.25954,50.989448 Z"
       id="rect4152-7"
       inkscape:connector-curvature="0"
       sodipodi:nodetypes="cssssssscc" />
    <rect
       style="stroke-width:0.26458332"
       y="21.460003"
       x="99.043991"
       height="26.57"
       width="1.036"
       id="rect4192-9" />
    <rect
       style="stroke-width:0.26458332"
       y="24.410002"
       x="-128.116"
       height="26.57"
       width="1.036"
       id="rect4192"
       transform="scale(-1,1)" />
    <g
       id="g418"
       transform="matrix(-1,0,0,1,226.61,0)">
      <rect
         transform="scale(-1,1)"
         style="stroke-width:0.16231799"
         y="11.460002"
         x="-127.56601"
         height="10"
         width="1.036"
         id="rect4192-9-7" />
      <rect
         style="stroke-width:0.13229166"
         rx="3.6010451e-17"
         y="11.459748"
         x="124.581"
         height="5"
         width="5"
         id="rect4447" />
      <rect
         transform="scale(-1,1)"
         style="stroke-width:0.16231799"
         y="14.44"
         x="-99.530006"
         height="10"
         width="1.036"
         id="rect4192-9-7-8" />
      <rect
         style="stroke-width:0.13229166"
         rx="3.6010451e-17"
         y="11.460002"
         x="96.516006"
         height="5"
         width="5"
         id="rect4447-4" />
    </g>
    <g
       id="g205"
       transform="matrix(-1,0,0,1,226.61,0)">
      <rect
         id="rect182"
         width="3.2850001"
         height="16.360001"
         x="109.81"
         y="63.07"
         rx="2.7755586e-17"
         style="stroke-width:0.26458332" />
      <path
         sodipodi:nodetypes="cccccccc"
         inkscape:connector-curvature="0"
         id="rect85"
         d="m 110.69,60.070001 h 2.405 -0.905 l 0.905,3 v 0 h -3.285 v 0 z"
         style="stroke-width:0.26458332" />
    </g>
    <path
       style="stroke-width:0.26458332"
       d="m 89.414997,50.18 -1.505,10e-7 0.005,-10e-7 -0.695,3.000001 v 0 h 2.87 v 0 z"
       id="rect85-3-6"
       inkscape:connector-curvature="0"
       sodipodi:nodetypes="cccccccc" />
    <g
       id="g426"
       transform="matrix(-1,0,0,1,226.61,0)">
      <rect
         style="stroke-width:0.48459622"
         rx="7.2020882e-17"
         y="-95.5"
         x="20.906"
         height="21.15"
         width="8.5240002"
         id="rect182-2"
         transform="rotate(90)" />
      <path
         sodipodi:nodetypes="cccccccc"
         inkscape:connector-curvature="0"
         id="rect85-3-7"
         d="M 98.500001,24.4 V 26.805 25.9 L 95.5,29.430001 v 0 -8.52 0 z"
         style="stroke-width:0.26458332" />
    </g>
    <g
       id="g422"
       transform="matrix(-1,0,0,1,226.61,0)">
      <rect
         style="stroke-width:0.47190854"
         rx="7.2020882e-17"
         y="130.56001"
         x="17.955999"
         height="20.056999"
         width="8.5240002"
         id="rect182-2-3"
         transform="matrix(0,1,1,0,0,0)" />
      <path
         sodipodi:nodetypes="cccccccc"
         inkscape:connector-curvature="0"
         id="rect85-3-7-5"
         d="m 127.56,22.990001 v -2.404999 0.904999 l 3,-3.530001 v 0 8.520001 0 z"
         style="stroke-width:0.26458332" />
    </g>
    <text
       xml:space="preserve"
       style="font-style:normal;font-weight:normal;font-size:10.58333302px;line-height:0;font-family:sans-serif;letter-spacing:0px;word-spacing:0px;fill:#000000;fill-opacity:1;stroke:none;stroke-width:0.26458332"
       x="5.9143405"
       y="14.829972"
       id="text281-0"><tspan
         sodipodi:role="line"
         id="tspan279-23"
         x="5.9143405"
         y="14.829972"
         style="font-size:2.11666656px;line-height:0;stroke-width:0.26458332">REFERENCIAS:</tspan><tspan
         sodipodi:role="line"
         x="5.9143405"
         y="17.029322"
         style="font-size:2.11666656px;line-height:0;stroke-width:0.26458332"
         id="tspan530" /><tspan
         sodipodi:role="line"
         x="5.9143405"
         y="17.029322"
         style="font-size:2.11666656px;line-height:0;stroke-width:0.26458332"
         id="tspan528" /><tspan
         sodipodi:role="line"
         x="5.9143405"
         y="17.029322"
         style="font-size:2.11666656px;line-height:0;stroke-width:0.26458332"
         id="tspan526" /><tspan
         sodipodi:role="line"
         x="5.9143405"
         y="17.029322"
         style="font-size:2.11666656px;line-height:0;stroke-width:0.26458332"
         id="tspan512">- Todas la medidas en mm.</tspan><tspan
         sodipodi:role="line"
         x="5.9143405"
         y="19.22867"
         style="font-size:2.11666656px;line-height:0;stroke-width:0.26458332"
         id="tspan514">- Formato: W[mm]xH[mm].</tspan><tspan
         sodipodi:role="line"
         x="5.9143405"
         y="21.428019"
         style="font-size:2.11666656px;line-height:0;stroke-width:0.26458332"
         id="tspan516">- Gaps: 0.5 de cobre y espacio.</tspan><tspan
         sodipodi:role="line"
         x="5.9143405"
         y="23.627367"
         style="font-size:2.11666656px;line-height:0;stroke-width:0.26458332"
         id="tspan510">- Pads de 5x5 en los emisores.</tspan><tspan
         sodipodi:role="line"
         x="5.9143405"
         y="25.826717"
         style="font-size:2.11666656px;line-height:0;stroke-width:0.26458332"
         id="tspan522">- Agregados pads para polarizar</tspan><tspan
         sodipodi:role="line"
         x="5.9143405"
         y="28.026066"
         style="font-size:2.11666656px;line-height:0;stroke-width:0.26458332"
         id="tspan524">  Fuera de la placa.</tspan><tspan
         sodipodi:role="line"
         x="5.9143405"
         y="30.225414"
         style="font-size:2.11666656px;line-height:0;stroke-width:0.26458332"
         id="tspan108"></tspan><tspan
         sodipodi:role="line"
         x="5.9143405"
         y="30.225414"
         style="font-size:2.11666656px;line-height:0;stroke-width:0.26458332"
         id="tspan110"> </tspan><tspan
         sodipodi:role="line"
         x="5.9143405"
         y="32.424763"
         style="font-size:2.11666656px;line-height:0;stroke-width:0.26458332"
         id="tspan112">REV1:</tspan><tspan
         sodipodi:role="line"
         x="5.9143405"
         y="34.624111"
         style="font-size:2.11666656px;line-height:0;stroke-width:0.26458332"
         id="tspan114">- Gaps: Aumentados a 1 de </tspan><tspan
         sodipodi:role="line"
         x="5.9143405"
         y="36.82346"
         style="font-size:2.11666656px;line-height:0;stroke-width:0.26458332"
         id="tspan122">  cobre y espacio.</tspan><tspan
         sodipodi:role="line"
         x="5.9143405"
         y="39.022812"
         style="font-size:2.11666656px;line-height:0;stroke-width:0.26458332"
         id="tspan116">- Pads suavizados en los emisores</tspan><tspan
         sodipodi:role="line"
         x="5.9143405"
         y="41.22216"
         style="font-size:2.11666656px;line-height:0;stroke-width:0.26458332"
         id="tspan118">  (8x8 aprox).</tspan><tspan
         sodipodi:role="line"
         x="5.9143405"
         y="43.421509"
         style="font-size:2.11666656px;line-height:0;stroke-width:0.26458332"
         id="tspan124"> </tspan><tspan
         sodipodi:role="line"
         x="5.9143405"
         y="45.620857"
         style="font-size:2.11666656px;line-height:0;stroke-width:0.26458332"
         id="tspan126">REV2:</tspan><tspan
         sodipodi:role="line"
         x="5.9143405"
         y="47.820206"
         style="font-size:2.11666656px;line-height:0;stroke-width:0.26458332"
         id="tspan128">- Diminuidos espacios para </tspan><tspan
         sodipodi:role="line"
         x="5.9143405"
         y="50.019554"
         style="font-size:2.11666656px;line-height:0;stroke-width:0.26458332"
         id="tspan130">  capacitores de entrada/salida.</tspan><tspan
         sodipodi:role="line"
         x="5.9143405"
         y="52.218903"
         style="font-size:2.11666656px;line-height:0;stroke-width:0.26458332"
         id="tspan132">- Fijado ancho total a 100 aprox.</tspan><tspan
         sodipodi:role="line"
         x="5.9143405"
         y="54.418251"
         style="font-size:2.11666656px;line-height:0;stroke-width:0.26458332"
         id="tspan120" /></text>
    <rect
       id="rect550"
       width="10"
       height="5"
       x="11.760001"
       y="61.63752"
       rx="7.2020902e-17"
       style="stroke-width:0.26458332" />
    <rect
       id="rect552"
       width="5"
       height="1"
       x="28.16"
       y="61.63752"
       rx="7.2020902e-17"
       style="stroke-width:0.26458332" />
    <text
       xml:space="preserve"
       style="font-style:normal;font-weight:normal;font-size:10.58333302px;line-height:1.25;font-family:sans-serif;letter-spacing:0px;word-spacing:0px;fill:#000000;fill-opacity:1;stroke:none;stroke-width:0.26458332"
       x="11.388926"
       y="59.976082"
       id="text281-92"><tspan
         sodipodi:role="line"
         id="tspan279-28"
         x="11.388926"
         y="59.976082"
         style="font-size:2.11666656px;stroke-width:0.26458332">Test: 5x10</tspan></text>
    <text
       xml:space="preserve"
       style="font-style:normal;font-weight:normal;font-size:10.58333302px;line-height:1.25;font-family:sans-serif;letter-spacing:0px;word-spacing:0px;fill:#000000;fill-opacity:1;stroke:none;stroke-width:0.26458332"
       x="28.009237"
       y="60.057388"
       id="text281-92-9"><tspan
         sodipodi:role="line"
         id="tspan279-28-7"
         x="28.009237"
         y="60.057388"
         style="font-size:2.11666656px;stroke-width:0.26458332">Test: 1x5</tspan></text>
    <g
       id="g211"
       transform="matrix(-1,0,0,1,226.61,0)">
      <rect
         id="rect182-5-3"
         width="3.2850001"
         height="1"
         x="109.81"
         y="80.43"
         rx="2.7755586e-17"
         style="stroke-width:0.06541401" />
      <rect
         id="rect182-5-3-67"
         width="3.2850001"
         height="1"
         x="109.81001"
         y="82.43"
         rx="2.7755586e-17"
         style="stroke-width:0.06541401" />
      <rect
         id="rect182-5-3-35"
         width="3.2850001"
         height="1"
         x="109.80998"
         y="84.43"
         rx="2.7755586e-17"
         style="stroke-width:0.06541401" />
      <rect
         id="rect182-5-3-67-2"
         width="3.2850001"
         height="1"
         x="109.81"
         y="86.43"
         rx="2.7755586e-17"
         style="stroke-width:0.06541401" />
    </g>
    <rect
       style="stroke-width:0.06118493"
       rx="2.4282742e-17"
       y="61.220001"
       x="-90.089996"
       height="1"
       width="2.8739734"
       id="rect182-5-3-1"
       transform="scale(-1,1)" />
    <rect
       style="stroke-width:0.06118493"
       rx="2.4282742e-17"
       y="63.220001"
       x="-90.089981"
       height="1"
       width="2.8739734"
       id="rect182-5-3-67-27"
       transform="scale(-1,1)" />
    <rect
       style="stroke-width:0.06118493"
       rx="2.4282742e-17"
       y="65.220001"
       x="-90.090012"
       height="1"
       width="2.8739734"
       id="rect182-5-3-35-0"
       transform="scale(-1,1)" />
    <rect
       style="stroke-width:0.06118493"
       rx="2.4282742e-17"
       y="67.220001"
       x="-90.089996"
       height="1"
       width="2.8739734"
       id="rect182-5-3-67-2-9"
       transform="scale(-1,1)" />
    <g
       id="g350"
       transform="matrix(-1,0,0,1,226.61,0)">
      <rect
         style="display:inline;stroke-width:0.10537189"
         rx="7.2020882e-17"
         y="151.62"
         x="17.955999"
         height="1"
         width="8.5240002"
         id="rect182-5-3-0-1-6"
         transform="matrix(0,1,1,0,0,0)" />
      <rect
         style="display:inline;stroke-width:0.10537189"
         rx="7.2020882e-17"
         y="153.62"
         x="17.955999"
         height="1"
         width="8.5240002"
         id="rect182-5-3-0-1-6-6"
         transform="matrix(0,1,1,0,0,0)" />
      <rect
         style="display:inline;stroke-width:0.10537189"
         rx="7.2020882e-17"
         y="155.62"
         x="17.955999"
         height="1"
         width="8.5240002"
         id="rect182-5-3-0-1-6-8"
         transform="matrix(0,1,1,0,0,0)" />
      <rect
         style="display:inline;stroke-width:0.10537189"
         rx="7.2020882e-17"
         y="157.62"
         x="17.955999"
         height="1"
         width="8.5240002"
         id="rect182-5-3-0-1-6-6-9"
         transform="matrix(0,1,1,0,0,0)" />
    </g>
    <g
       id="g412"
       transform="matrix(-1,0,0,1,217.14,0.38599937)">
      <rect
         style="display:inline;stroke-width:0.10537189"
         rx="7.2020882e-17"
         y="56.880001"
         x="20.52"
         height="1"
         width="8.5240002"
         id="rect182-5-3-0-1-6-0"
         transform="matrix(0,1,1,0,0,0)" />
      <rect
         style="display:inline;stroke-width:0.10537189"
         rx="7.2020882e-17"
         y="58.880001"
         x="20.52"
         height="1"
         width="8.5240002"
         id="rect182-5-3-0-1-6-6-2"
         transform="matrix(0,1,1,0,0,0)" />
      <rect
         style="display:inline;stroke-width:0.10537189"
         rx="7.2020882e-17"
         y="60.880001"
         x="20.52"
         height="1"
         width="8.5240002"
         id="rect182-5-3-0-1-6-8-3"
         transform="matrix(0,1,1,0,0,0)" />
      <rect
         style="display:inline;stroke-width:0.10537189"
         rx="7.2020882e-17"
         y="62.880001"
         x="20.52"
         height="1"
         width="8.5240002"
         id="rect182-5-3-0-1-6-6-9-7"
         transform="matrix(0,1,1,0,0,0)" />
    </g>
    <path
       style="display:inline;stroke-width:0.42333329"
       d="m 115.3238,50.184805 4.59212,-0.6249 c 1.37235,-0.18675 2.5,-0.48357 2.5,-1.86857 v -3 c 0,-1.385 -1.115,-2.5 -2.5,-2.5 h -3 c -1.385,0 -1.68852,1.1436 -1.87093,2.51654 l -0.62093,4.67352 C 114.37266,49.767935 114.45,50.12 114.93,50.19 Z"
       id="rect4152-7-8"
       inkscape:connector-curvature="0"
       sodipodi:nodetypes="cssssssscc" />
  </g>
</svg>
